<svg xmlns="http://www.w3.org/2000/svg" version="1.1" xmlns:xlink="http://www.w3.org/1999/xlink" xmlns:svgjs="http://svgjs.dev/svgjs" width="1000" height="113" viewBox="0 0 1000 113"><g transform="matrix(1,0,0,1,-0.6060606060606233,0.49930211129925794)"><svg viewBox="0 0 396 45" data-background-color="#111111" preserveAspectRatio="xMidYMid meet" height="113" width="1000" xmlns="http://www.w3.org/2000/svg" xmlns:xlink="http://www.w3.org/1999/xlink"><g id="tight-bounds" transform="matrix(1,0,0,1,0.2400000000000091,-0.19883712396872966)"><svg viewBox="0 0 395.52 45.39767424793746" height="45.39767424793746" width="395.52"><g><svg viewBox="0 0 542.7178323153719 62.293" height="45.39767424793746" width="395.52"><g><svg viewBox="0 0 542.7178323153719 62.293" height="62.293" width="542.7178323153719"><g id="textblocktransform"><svg viewBox="0 0 542.7178323153719 62.293" height="62.293" width="542.7178323153719" id="textblock"><g><svg viewBox="0 0 542.7178323153719 62.293" height="62.293" width="542.7178323153719"><g><svg><g></g><g></g></svg></g><g><svg><g><svg></svg></g><g></g></svg></g><g id="text-0"><svg viewBox="0 0 542.7178323153719 62.293" height="62.293" width="542.7178323153719"><g transform="matrix(1,0,0,1,0,10.971499999999999)"><svg width="172.65000000000003" viewBox="2 -38 172.64 38.15" height="38.15" data-palette-color="#ffffff"><path d="M14 0Q12.3 0 11-0.83 9.7-1.65 9.4-2.9L9.4-2.9Q9.3-3.2 8.5-6.9L8.5-6.9Q7.25-13.15 5.55-18.7L5.55-18.7Q4.4-22.55 3.65-25.5L3.65-25.5 2.15-30.9Q2-31.45 2-31.9L2-31.9Q2-33.45 3.2-34.38 4.4-35.3 6.2-35.3L6.2-35.3Q7.4-35.3 8.18-34.77 8.95-34.25 9.25-33L9.25-33Q9.6-31.5 9.93-30.38 10.25-29.25 10.45-28.4L10.45-28.4Q11.7-24.15 12.5-20.35L12.5-20.35Q12.75-19.25 13.4-15.8L13.4-15.8Q13.85-13.65 14.25-11.85 14.65-10.05 14.8-10.05L14.8-10.05Q14.95-10.05 15.33-11 15.7-11.95 15.98-12.78 16.25-13.6 16.4-14.05L16.4-14.05Q16.6-14.75 17.45-17.15L17.45-17.15Q18.15-19 18.57-19.93 19-20.85 19.7-21.55 20.4-22.25 21.4-22.25L21.4-22.25Q22.8-22.25 23.7-21 24.6-19.75 25.55-17.05L25.55-17.05Q28-10.15 28.5-10.15L28.5-10.15Q28.8-10.15 29.65-15.55L29.65-15.55Q29.85-16.55 30.05-17.73 30.25-18.9 30.5-20.25L30.5-20.25Q31.8-26.95 33.2-32.95L33.2-32.95Q33.75-35.25 36.55-35.25L36.55-35.25Q38.3-35.25 39.45-34.35 40.6-33.45 40.6-32.05L40.6-32.05Q40.6-31.65 40.45-31.1L40.45-31.1Q39.35-26.95 38.15-21.7L38.15-21.7 37.45-18.75Q36.65-15.4 35.83-11.3 35-7.2 34.75-6.05L34.75-6.05 34.2-3.2Q33.9-1.7 32.75-0.9 31.6-0.1 29.8-0.1L29.8-0.1Q28-0.1 26.78-0.95 25.55-1.8 24.55-3.65L24.55-3.65Q24.4-3.9 23.1-6.65L23.1-6.65Q21.75-9.65 21.55-9.65L21.55-9.65Q21.35-9.65 20.55-7.3L20.55-7.3Q19.5-4.5 19.1-3.7L19.1-3.7Q17.3 0 14 0L14 0ZM62.55-0.3Q57.3-0.3 53.35-2.38 49.4-4.45 47.25-8.28 45.1-12.1 45.1-17.3L45.1-17.3Q45.1-22.55 47.3-26.68 49.5-30.8 53.42-33.13 57.35-35.45 62.4-35.45L62.4-35.45Q67.6-35.45 71.77-33.02 75.95-30.6 78.32-26.4 80.7-22.2 80.7-17.1L80.7-17.1Q80.7-12.05 78.37-8.25 76.05-4.45 71.95-2.38 67.85-0.3 62.55-0.3L62.55-0.3ZM62.85-6.8Q65.85-6.8 68.25-8 70.65-9.2 72.05-11.6 73.45-14 73.45-17.4L73.45-17.4Q73.45-20.75 72.12-23.38 70.8-26 68.35-27.48 65.9-28.95 62.7-28.95L62.7-28.95Q59.5-28.95 57.17-27.48 54.85-26 53.6-23.43 52.35-20.85 52.35-17.55L52.35-17.55Q52.35-12.35 55.27-9.58 58.2-6.8 62.85-6.8L62.85-6.8ZM97.15 0.15Q92.25 0.15 89.97-0.9 87.7-1.95 86.95-4.4 86.2-6.85 86.2-11.95L86.2-11.95Q86.2-17.7 86.72-22.5 87.25-27.3 88.15-32.6L88.15-32.6Q88.35-33.8 89.37-34.52 90.4-35.25 92-35.25L92-35.25Q93.7-35.25 94.57-34.43 95.45-33.6 95.45-32.2L95.45-32.2Q95.45-31.9 95.35-31.3L95.35-31.3Q94.3-25.15 93.75-20.83 93.2-16.5 93.2-11.75L93.2-11.75Q93.2-9.3 93.42-8.15 93.65-7 94.32-6.55 95-6.1 96.45-6.1L96.45-6.1Q99.55-6.1 107.15-7.5L107.15-7.5Q107.4-7.55 107.85-7.55L107.85-7.55Q109.15-7.55 109.92-6.58 110.7-5.6 110.7-4.3L110.7-4.3Q110.7-1.65 106.85-0.95L106.85-0.95Q103.4-0.3 101.62-0.08 99.85 0.15 97.15 0.15L97.15 0.15ZM129.74-28.75Q127.69-28.75 126.54-28.7L126.54-28.7Q126.74-24.3 126.79-20.85L126.79-20.85Q127.49-20.9 128.99-20.9L128.99-20.9Q131.84-20.9 133.72-20.8 135.59-20.7 137.04-20.35L137.04-20.35Q138.44-20 139.09-19.25 139.74-18.5 139.74-17.2L139.74-17.2Q139.74-15.75 138.97-14.85 138.19-13.95 136.59-14.1L136.59-14.1Q132.59-14.5 129.19-14.5L129.19-14.5Q127.54-14.5 126.79-14.45L126.79-14.45Q126.74-9.8 126.44-4.8L126.44-4.8 126.34-3.05Q126.24-1.7 125.32-0.88 124.39-0.05 122.69-0.05L122.69-0.05Q120.94-0.05 119.94-0.9 118.94-1.75 119.04-3.1L119.04-3.1Q119.49-8.7 119.54-13.95L119.54-13.95 118.44-13.8Q117.29-13.65 116.57-14.6 115.84-15.55 115.84-17.05L115.84-17.05Q115.84-18.65 116.67-19.33 117.49-20 118.99-20.25L118.99-20.25 119.49-20.35Q119.44-25.05 119.19-28.55L119.19-28.55 118.79-28.55Q117.19-28.55 116.44-29.25 115.69-29.95 115.69-31.7L115.69-31.7Q115.69-33.35 116.32-34.02 116.94-34.7 118.14-34.85L118.14-34.85 118.69-34.9Q118.64-35.05 118.64-35.25L118.64-35.25Q118.54-36.5 119.57-37.25 120.59-38 122.39-38L122.39-38Q125.69-38 125.99-35.3L125.99-35.3 125.99-35.15 130.04-35.15Q132.69-35.15 135.42-34.98 138.14-34.8 139.39-34.55L139.39-34.55Q140.94-34.25 141.59-33.43 142.24-32.6 142.24-31.35L142.24-31.35Q142.24-29.85 141.44-28.95 140.64-28.05 139.24-28.2L139.24-28.2Q133.99-28.75 129.74-28.75L129.74-28.75ZM160.79-0.05Q159.04-0.05 158.09-0.95 157.14-1.85 157.14-3.4L157.14-3.4 156.99-16.6Q156.29-16.6 154.37-18.53 152.44-20.45 151.34-22.1L151.34-22.1Q150.39-23.5 149.14-25.95 147.89-28.4 146.89-30.95L146.89-30.95Q146.74-31.35 146.74-31.75L146.74-31.75Q146.74-33 147.97-34.05 149.19-35.1 150.89-35.1L150.89-35.1Q152.09-35.1 152.89-34.48 153.69-33.85 154.34-32.5L154.34-32.5Q156.69-27.65 158.09-25.25L158.09-25.25Q160.09-21.95 160.79-21.95L160.79-21.95Q161.44-21.95 163.24-25.25L163.24-25.25 167.14-32.7Q167.79-33.9 168.42-34.45 169.04-35 170.39-35L170.39-35Q172.24-35 173.44-34.18 174.64-33.35 174.64-31.9L174.64-31.9Q174.64-31.4 174.29-30.45L174.29-30.45Q173.84-29.3 172.31-26.28 170.79-23.25 169.89-21.9L169.89-21.9Q168.69-20.05 166.81-18.32 164.94-16.6 164.24-16.6L164.24-16.6 164.39-3.55Q164.39-1.9 163.47-0.98 162.54-0.05 160.79-0.05L160.79-0.05Z" opacity="1" transform="matrix(1,0,0,1,0,0)" fill="#ffffff" class="undefined-cv-0"></path></svg></g><g><svg xmlns="http://www.w3.org/2000/svg" xmlns:xlink="http://www.w3.org/1999/xlink" version="1.1" x="187.35700000000003" y="0" viewBox="10.703000000000001 8.20045015213174 56.400999999999996 58.60154984786827" enable-background="new 0 0 75 75" xml:space="preserve" height="62.293" width="59.953832315371855" class="icon-_$-0" data-fill-palette-color="accent" id="_$-0"><path fill="#ffffff" d="M67.104 33.365C67.104 40.344 61.498 46 54.582 46c-0.542 0-1.075-0.039-1.601-0.106-1.576 2.224-4.169 3.677-7.103 3.677-1.414 0-2.749-0.34-3.93-0.938-1.736 3.007-4.797 5.005-8.284 5.005-4.076 0-7.57-2.728-9.047-6.605-1.007 0.26-2.078 0.4-3.188 0.4-5.924 0-10.726-3.997-10.726-8.928 0-3.686 2.683-6.849 6.51-8.212-1.938-1.623-3.118-3.762-3.118-6.107 0-4.694 4.719-8.562 10.808-9.111 0.195-2.438 1.419-4.654 3.528-5.902 3.656-2.163 8.584-0.597 11.006 3.497 0.139 0.234 0.265 0.472 0.381 0.712 1.767-1.646 4.245-2.672 6.99-2.672 5.365 0 9.715 3.91 9.715 8.731 0 0.486-0.046 0.962-0.131 1.426C62.451 21.751 67.104 27.009 67.104 33.365zM24.831 55.352c-1.558 0-2.82 1.263-2.82 2.82s1.263 2.82 2.82 2.82 2.82-1.263 2.82-2.82S26.389 55.352 24.831 55.352zM20.038 62.856c-1.089 0-1.973 0.883-1.973 1.973s0.884 1.973 1.973 1.973c1.09 0 1.973-0.883 1.973-1.973S21.128 62.856 20.038 62.856z" data-fill-palette-color="accent"></path></svg></g><g transform="matrix(1,0,0,1,262.0178323153719,12.8215)"><svg width="280.70000000000005" viewBox="1.5 -36.15 280.68 36.65" height="36.65" data-palette-color="#ffffff"><path d="M24.85-34.6Q26.35-34.45 27.2-33.73 28.05-33 28.05-31.3L28.05-31.3Q28.05-29.55 27.08-28.75 26.1-27.95 24.3-28.05L24.3-28.05Q20.7-28.3 18.4-28.3L18.4-28.3Q18-22.65 17.85-17L17.85-17Q17.7-11.4 17.7-2.8L17.7-2.8Q17.7-0.95 16.98-0.23 16.25 0.5 14.2 0.5L14.2 0.5Q12.05 0.5 11.1-0.25 10.15-1 10.15-2.75L10.15-2.75Q10.15-10.05 10.5-17L10.5-17 11.1-28.25Q8.9-28.15 7.55-28.05L7.55-28.05 5.35-27.9Q5.15-27.85 4.75-27.85L4.75-27.85Q3.3-27.85 2.4-28.8 1.5-29.75 1.5-31.3L1.5-31.3Q1.5-32.75 2.27-33.45 3.05-34.15 4.45-34.35L4.45-34.35Q6.25-34.6 9.5-34.75 12.75-34.9 15.5-34.9L15.5-34.9Q17.75-34.9 20.63-34.83 23.5-34.75 24.85-34.6L24.85-34.6ZM63.8-19.25Q64.7-19.25 65.5-18.43 66.3-17.6 66.3-15.95L66.3-15.95Q66.3-14.3 65.5-13.5 64.7-12.7 63.75-12.7L63.75-12.7 63.35-12.7 63.6-3.35Q63.65-1.75 62.67-0.83 61.7 0.1 60 0.1L60 0.1Q58.35 0.1 57.35-0.78 56.35-1.65 56.3-3.15L56.3-3.15 56-12.8 43.25-13 42.4-2.25Q42.2 0.35 38.8 0.35L38.8 0.35Q36.9 0.35 35.95-0.43 35-1.2 35.1-2.75L35.1-2.75 35.9-13.1 35.6-13.1Q34.4-13.1 33.72-13.98 33.05-14.85 33.05-16.4L33.05-16.4Q33.05-17.95 33.8-18.78 34.55-19.6 35.8-19.6L35.8-19.6 36.45-19.6 37.5-33.1Q37.6-34.45 38.65-35.3 39.7-36.15 41.35-36.15L41.35-36.15Q43.1-36.15 44-35.15 44.9-34.15 44.8-32.55L44.8-32.55 43.75-19.5 55.8-19.35 55.4-32.75Q55.35-34.25 56.32-35.2 57.3-36.15 59.05-36.15L59.05-36.15Q60.7-36.15 61.7-35.23 62.7-34.3 62.75-32.95L62.75-32.95 63.15-19.25 63.8-19.25ZM89.75-0.3Q84.5-0.3 80.55-2.38 76.59-4.45 74.45-8.28 72.3-12.1 72.3-17.3L72.3-17.3Q72.3-22.55 74.5-26.68 76.7-30.8 80.62-33.13 84.55-35.45 89.59-35.45L89.59-35.45Q94.8-35.45 98.97-33.02 103.15-30.6 105.52-26.4 107.9-22.2 107.9-17.1L107.9-17.1Q107.9-12.05 105.57-8.25 103.25-4.45 99.15-2.38 95.05-0.3 89.75-0.3L89.75-0.3ZM90.05-6.8Q93.05-6.8 95.45-8 97.84-9.2 99.25-11.6 100.65-14 100.65-17.4L100.65-17.4Q100.65-20.75 99.32-23.38 98-26 95.55-27.48 93.09-28.95 89.9-28.95L89.9-28.95Q86.7-28.95 84.37-27.48 82.05-26 80.8-23.43 79.55-20.85 79.55-17.55L79.55-17.55Q79.55-12.35 82.47-9.58 85.4-6.8 90.05-6.8L90.05-6.8ZM141.89-21.4Q142.04-14.8 142.04-3.7L142.04-3.7Q142.04-1.6 141.14-0.7 140.24 0.2 138.39 0.2L138.39 0.2Q136.54 0.2 135.67-0.63 134.79-1.45 134.79-3.35L134.79-3.35 134.79-4.35Q133.39-2.45 131.02-1.23 128.64 0 125.54 0L125.54 0Q121.99 0 119.34-1.65 116.69-3.3 115.29-6.28 113.89-9.25 113.89-13.1L113.89-13.1Q113.89-19.3 114.14-30.3L114.14-30.3 114.19-32.05Q114.24-33.45 115.22-34.33 116.19-35.2 117.94-35.2L117.94-35.2Q119.64-35.2 120.54-34.4 121.44-33.6 121.44-32.05L121.44-32.05Q121.44-28.7 121.34-23.3L121.34-23.3Q121.24-17.5 121.24-13.1L121.24-13.1Q121.24-10.05 122.82-8.3 124.39-6.55 126.59-6.55L126.59-6.55Q128.54-6.55 130.42-7.93 132.29-9.3 133.49-11.68 134.69-14.05 134.69-16.9L134.69-16.9 134.69-20.3Q134.64-23.1 134.64-32.3L134.64-32.3Q134.64-35.5 138.04-35.5L138.04-35.5Q139.79-35.5 140.79-34.68 141.79-33.85 141.79-32.3L141.79-32.3Q141.79-29.35 141.89-22.85L141.89-22.85 141.89-21.4ZM182.59-16.2Q182.59-14.75 181.72-13.85 180.84-12.95 179.24-12.9L179.24-12.9Q178.69-6.75 175.22-3.35 171.74 0.05 165.69 0.05L165.69 0.05Q160.69 0.05 156.67-2.23 152.64-4.5 150.37-8.5 148.09-12.5 148.09-17.4L148.09-17.4Q148.09-22.25 150.27-26.18 152.44-30.1 156.19-32.35 159.94-34.6 164.44-34.6L164.44-34.6Q168.14-34.6 170.62-33.18 173.09-31.75 174.14-29.95L174.14-29.95 174.14-31.1Q174.14-32.1 174.97-32.8 175.79-33.5 177.34-33.5L177.34-33.5Q178.94-33.5 179.77-32.77 180.59-32.05 180.64-30.95L180.64-30.95Q180.79-26.8 179.94-25.15L179.94-25.15Q179.49-24.35 178.62-23.95 177.74-23.55 176.64-23.55L176.64-23.55Q175.64-23.55 174.89-23.93 174.14-24.3 172.94-25.35L172.94-25.35Q171.59-26.55 170.14-27.3 168.69-28.05 166.19-28.05L166.19-28.05Q163.09-28.05 160.62-26.73 158.14-25.4 156.74-22.98 155.34-20.55 155.34-17.4L155.34-17.4Q155.34-14.25 156.74-11.75 158.14-9.25 160.49-7.85 162.84-6.45 165.49-6.45L165.49-6.45Q168.29-6.45 170.04-8.08 171.79-9.7 172.24-12.95L172.24-12.95 167.19-13.05Q165.44-13.1 164.62-13.95 163.79-14.8 163.79-16.2L163.79-16.2Q163.79-17.75 164.74-18.7 165.69-19.65 167.34-19.6L167.34-19.6 178.74-19.35Q180.64-19.3 181.62-18.5 182.59-17.7 182.59-16.2L182.59-16.2ZM218.34-19.25Q219.24-19.25 220.04-18.43 220.84-17.6 220.84-15.95L220.84-15.95Q220.84-14.3 220.04-13.5 219.24-12.7 218.29-12.7L218.29-12.7 217.89-12.7 218.14-3.35Q218.19-1.75 217.21-0.83 216.24 0.1 214.54 0.1L214.54 0.1Q212.89 0.1 211.89-0.78 210.89-1.65 210.84-3.15L210.84-3.15 210.54-12.8 197.79-13 196.94-2.25Q196.74 0.35 193.34 0.35L193.34 0.35Q191.44 0.35 190.49-0.43 189.54-1.2 189.64-2.75L189.64-2.75 190.44-13.1 190.14-13.1Q188.94-13.1 188.26-13.98 187.59-14.85 187.59-16.4L187.59-16.4Q187.59-17.95 188.34-18.78 189.09-19.6 190.34-19.6L190.34-19.6 190.99-19.6 192.04-33.1Q192.14-34.45 193.19-35.3 194.24-36.15 195.89-36.15L195.89-36.15Q197.64-36.15 198.54-35.15 199.44-34.15 199.34-32.55L199.34-32.55 198.29-19.5 210.34-19.35 209.94-32.75Q209.89-34.25 210.86-35.2 211.84-36.15 213.59-36.15L213.59-36.15Q215.24-36.15 216.24-35.23 217.24-34.3 217.29-32.95L217.29-32.95 217.69-19.25 218.34-19.25ZM249.19-34.6Q250.69-34.45 251.54-33.73 252.39-33 252.39-31.3L252.39-31.3Q252.39-29.55 251.41-28.75 250.44-27.95 248.64-28.05L248.64-28.05Q245.04-28.3 242.74-28.3L242.74-28.3Q242.34-22.65 242.19-17L242.19-17Q242.04-11.4 242.04-2.8L242.04-2.8Q242.04-0.95 241.31-0.23 240.59 0.5 238.54 0.5L238.54 0.5Q236.39 0.5 235.44-0.25 234.49-1 234.49-2.75L234.49-2.75Q234.49-10.05 234.84-17L234.84-17 235.44-28.25Q233.24-28.15 231.89-28.05L231.89-28.05 229.69-27.9Q229.49-27.85 229.09-27.85L229.09-27.85Q227.64-27.85 226.74-28.8 225.84-29.75 225.84-31.3L225.84-31.3Q225.84-32.75 226.61-33.45 227.39-34.15 228.79-34.35L228.79-34.35Q230.59-34.6 233.84-34.75 237.09-34.9 239.84-34.9L239.84-34.9Q242.09-34.9 244.96-34.83 247.84-34.75 249.19-34.6L249.19-34.6ZM270.03 0.05Q266.28 0.05 263.31-1.53 260.33-3.1 258.66-5.68 256.98-8.25 256.98-11.2L256.98-11.2Q256.98-13.1 257.96-13.95 258.93-14.8 260.48-14.8L260.48-14.8Q264.13-14.8 264.28-11.75L264.28-11.75Q264.43-9.2 266.13-7.83 267.83-6.45 270.03-6.45L270.03-6.45Q271.93-6.45 273.43-7.3 274.93-8.15 274.93-9.8L274.93-9.8Q274.93-11.1 273.98-11.98 273.03-12.85 271.76-13.33 270.48-13.8 268.23-14.45L268.23-14.45Q265.33-15.25 263.08-16.2 260.83-17.15 258.86-19.28 256.88-21.4 256.88-24.75L256.88-24.75Q256.88-27.8 258.56-30.25 260.23-32.7 263.08-34.08 265.93-35.45 269.33-35.45L269.33-35.45Q272.88-35.45 275.76-33.98 278.63-32.5 280.28-30.05 281.93-27.6 281.93-24.9L281.93-24.9Q281.93-21.6 278.33-21.6L278.33-21.6Q276.78-21.6 276.01-22.35 275.23-23.1 274.78-24.8L274.78-24.8Q274.33-26.5 272.96-27.75 271.58-29 269.33-29L269.33-29Q267.13-29 265.63-27.83 264.13-26.65 264.13-24.65L264.13-24.65Q264.13-23.25 265.26-22.6 266.38-21.95 269.58-21L269.58-21Q269.88-20.9 270.28-20.78 270.68-20.65 271.13-20.5L271.13-20.5Q273.88-19.65 276.18-18.55 278.48-17.45 280.33-15.3 282.18-13.15 282.18-9.95L282.18-9.95Q282.18-7.05 280.56-4.78 278.93-2.5 276.16-1.23 273.38 0.05 270.03 0.05L270.03 0.05Z" opacity="1" transform="matrix(1,0,0,1,0,0)" fill="#ffffff" class="undefined-cv-1"></path></svg></g></svg></g></svg></g></svg></g></svg></g></svg></g><defs></defs></svg><rect width="395.52" height="45.39767424793746" fill="none" stroke="none" visibility="hidden"></rect></g></svg></g></svg>