<svg xmlns="http://www.w3.org/2000/svg" version="1.1" xmlns:xlink="http://www.w3.org/1999/xlink" xmlns:svgjs="http://svgjs.dev/svgjs" width="1000" height="429" viewBox="0 0 1000 429"><g transform="matrix(1,0,0,1,-0.6060606060606233,-0.3441719129922092)"><svg viewBox="0 0 396 170" data-background-color="#001f3f" preserveAspectRatio="xMidYMid meet" height="429" width="1000" xmlns="http://www.w3.org/2000/svg" xmlns:xlink="http://www.w3.org/1999/xlink"><g id="tight-bounds" transform="matrix(1,0,0,1,0.2400000000000091,0.13638514034656168)"><svg viewBox="0 0 395.52 169.72722971930688" height="169.72722971930688" width="395.52"><g><svg viewBox="0 0 395.52 169.72722971930688" height="169.72722971930688" width="395.52"><g transform="matrix(1,0,0,1,0,114.50005321086633)"><svg viewBox="0 0 395.52 55.227176508440564" height="55.227176508440564" width="395.52"><g id="textblocktransform"><svg viewBox="0 0 395.52 55.227176508440564" height="55.227176508440564" width="395.52" id="textblock"><g><svg viewBox="0 0 395.52 55.227176508440564" height="55.227176508440564" width="395.52"><g transform="matrix(1,0,0,1,0,0)"><svg width="395.52" viewBox="3.2121806144714355 -19.975187301635742 428.9842834472656 59.89985656738281" height="55.227176508440564" data-palette-color="#ffffff"><path d="M27.8 12.037c0.521 0.438 0.901 0.884 1.14 1.337 0.233 0.452 0.288 1.001 0.164 1.65v0c-0.181 0.95-0.633 1.685-1.356 2.205-0.723 0.521-1.56 0.691-2.509 0.51v0c-0.491-0.093-0.98-0.271-1.466-0.533-0.493-0.263-0.881-0.541-1.165-0.833v0l-11.104-10.175-1.183 6.218c-0.179 0.943-0.62 1.653-1.322 2.131-0.695 0.478-1.599 0.612-2.712 0.4v0c-1.205-0.229-2.056-0.731-2.554-1.504-0.499-0.767-0.639-1.723-0.421-2.869v0c0.895-4.702 1.846-9.967 2.853-15.796v0l0.842-4.96-0.353 0.035c-0.209 0.028-0.363 0.033-0.461 0.014v0c-1.375-0.262-1.839-1.568-1.391-3.919v0c0.143-0.753 0.51-1.342 1.099-1.766 0.591-0.43 1.372-0.808 2.343-1.132v0l0.084-0.442c0.41-2.155 2.036-2.962 4.879-2.42v0c0.95 0.181 1.6 0.4 1.951 0.656 0.359 0.252 0.534 0.495 0.523 0.731v0c-0.019 0.098-0.015 0.167 0.012 0.205v0c2.443-0.214 4.234-0.212 5.374 0.005v0c2.941 0.56 5.407 1.504 7.4 2.834 2.001 1.324 3.431 2.923 4.289 4.796 0.865 1.875 1.095 3.873 0.692 5.995v0c-0.614 3.229-2.405 5.49-5.373 6.785-2.974 1.293-6.557 1.575-10.748 0.846v0zM19.944-11.781c-1.532-0.292-3.242-0.278-5.128 0.042v0c-0.22 1.512-0.687 4.145-1.401 7.897v0l-0.066 0.344c0.892 0.305 2.268 0.635 4.128 0.989v0c2.187 0.416 3.981 0.316 5.381-0.299 1.399-0.609 2.241-1.664 2.526-3.164v0c0.268-1.408-0.072-2.633-1.021-3.676-0.955-1.044-2.428-1.755-4.419-2.133zM58.986 18.088c0.603 0.197 1.05 0.505 1.342 0.922 0.286 0.41 0.356 1.076 0.209 1.998v0c-0.126 0.79-0.436 1.429-0.932 1.917-0.504 0.494-1.098 0.686-1.783 0.578v0c-1.416-0.225-2.471-0.568-3.168-1.031-0.702-0.469-1.293-1.211-1.772-2.225v0c-0.889 0.966-1.995 1.573-3.317 1.821-1.315 0.243-2.808 0.232-4.481-0.033v0c-3.713-0.59-6.368-2.106-7.965-4.547-1.597-2.441-2.092-5.564-1.487-9.37v0c0.397-2.495 1.259-4.63 2.587-6.403 1.322-1.775 2.981-3.06 4.977-3.857 1.995-0.79 4.172-0.997 6.529-0.622v0c1.185 0.188 2.248 0.594 3.189 1.215 0.948 0.617 1.626 1.345 2.032 2.186v0l0.201-0.626c0.139-0.45 0.46-0.794 0.964-1.031 0.51-0.236 1.259-0.276 2.246-0.119v0c1.047 0.166 1.783 0.503 2.209 1.009 0.427 0.5 0.588 1.079 0.483 1.738v0c-0.037 0.23-0.082 0.409-0.135 0.535v0c-0.374 1.081-0.869 2.92-1.485 5.515v0c-0.291 1.196-0.589 2.748-0.892 4.658v0l-0.391 2.459c-0.151 0.948-0.185 1.692-0.102 2.232 0.084 0.533 0.398 0.894 0.942 1.081zM51.3 13.383c0.246-1.338 0.594-3.419 1.043-6.244v0c0.178-1.119-0.046-2.09-0.671-2.911-0.625-0.822-1.514-1.324-2.667-1.507v0c-1.475-0.234-2.795 0.254-3.959 1.466-1.171 1.211-1.927 2.883-2.266 5.017v0c-0.323 2.034-0.153 3.725 0.51 5.073 0.656 1.353 1.708 2.145 3.156 2.375v0c1.343 0.214 2.431 0.039 3.263-0.525 0.824-0.557 1.355-1.472 1.591-2.744zM82.485 1.12c2.895 0.381 5.009 1.691 6.342 3.93 1.334 2.233 1.741 5.326 1.221 9.278v0l-1.518 11.167c-0.09 0.687-0.497 1.169-1.219 1.444-0.729 0.274-1.585 0.346-2.57 0.217v0c-0.958-0.126-1.786-0.403-2.483-0.831-0.697-0.428-1.007-0.936-0.929-1.524v0l1.557-11.465c0.316-2.406 0.273-4.12-0.131-5.141-0.403-1.028-1.163-1.615-2.28-1.762v0c-0.958-0.126-1.772 0.204-2.44 0.99-0.675 0.785-1.373 2.385-2.093 4.799v0c-0.414 1.358-0.731 2.876-0.951 4.554v0l-0.789 6.382c-0.112 0.853-0.518 1.462-1.218 1.827-0.699 0.359-1.594 0.466-2.685 0.323v0c-1.117-0.147-1.966-0.494-2.546-1.041-0.58-0.547-0.817-1.23-0.709-2.05v0c0.901-6.854 1.503-12.205 1.807-16.051v0c0.019-0.401-0.025-0.783-0.132-1.147-0.099-0.369-0.229-0.713-0.389-1.03-0.159-0.324-0.278-0.574-0.355-0.752v0c-0.151-0.39-0.202-0.766-0.154-1.13v0c0.09-0.687 0.579-1.285 1.467-1.794 0.886-0.502 1.71-0.703 2.469-0.604v0c0.364 0.048 0.702 0.21 1.016 0.487 0.32 0.277 0.657 0.708 1.01 1.293v0c0.304 0.504 0.514 0.948 0.631 1.333 0.117 0.385 0.146 0.809 0.085 1.272v0l-0.058 0.446c0.76-1.178 1.797-2.107 3.109-2.788 1.313-0.681 2.958-0.892 4.935-0.632zM106.424 29.944c-2.613-0.268-4.872-1.042-6.779-2.323-1.906-1.281-3.318-2.97-4.235-5.068-0.924-2.099-1.252-4.454-0.984-7.068v0c0.268-2.613 1.049-4.838 2.343-6.676 1.288-1.838 2.977-3.183 5.068-4.034 2.092-0.858 4.444-1.153 7.057-0.885v0c2.414 0.247 4.344 0.965 5.79 2.152v0l1.767-11.841 0.505-3.457c0.115-0.792 0.528-1.393 1.241-1.803 0.706-0.417 1.557-0.574 2.551-0.472v0c1.088 0.112 1.96 0.496 2.616 1.153 0.65 0.65 0.882 1.401 0.694 2.252v0c-0.368 1.631-0.936 5.269-1.702 10.914-0.76 5.652-1.363 10.643-1.806 14.973v0c-0.376 3.667-0.52 5.891-0.433 6.671v0c0.101 0.647 0.443 1.533 1.024 2.658v0c0.168 0.319 0.232 0.677 0.192 1.075v0c-0.084 0.822-0.549 1.535-1.396 2.139-0.845 0.597-1.729 0.848-2.65 0.754v0c-0.431-0.044-0.839-0.146-1.225-0.307-0.386-0.154-0.685-0.342-0.897-0.564v0c-0.91-0.864-1.541-1.864-1.895-2.999v0c-2.018 2.098-4.3 3.017-6.846 2.756zM107.053 24.299c0.995 0.102 1.947-0.068 2.857-0.511 0.917-0.442 1.673-1.058 2.27-1.848 0.597-0.79 0.941-1.633 1.033-2.528v0l0.757-7.382c-0.317-0.502-1.023-1.033-2.119-1.594-1.088-0.567-2.146-0.904-3.173-1.009v0c-1.983-0.203-3.597 0.308-4.842 1.534-1.245 1.226-1.988 3.013-2.228 5.361v0c-0.224 2.182 0.182 4.009 1.217 5.483 1.034 1.48 2.444 2.311 4.228 2.494zM138.12 32.343c-4.209-0.309-7.466-1.655-9.771-4.037-2.305-2.389-3.311-5.571-3.018-9.546v0c0.19-2.586 0.904-4.85 2.143-6.792 1.239-1.941 2.904-3.4 4.994-4.376 2.091-0.983 4.493-1.375 7.205-1.175v0c2.753 0.202 5.13 0.962 7.132 2.279 2.003 1.31 3.5 3.045 4.491 5.203 0.992 2.152 1.39 4.554 1.196 7.207v0c-0.285 3.876-1.716 6.793-4.293 8.749-2.577 1.963-5.937 2.793-10.079 2.488zM138.425 26.821c2.021 0.148 3.629-0.308 4.824-1.371 1.194-1.062 1.874-2.72 2.039-4.974v0c0.163-2.221-0.236-4.158-1.197-5.813-0.961-1.655-2.486-2.559-4.574-2.712v0c-1.955-0.144-3.563 0.457-4.825 1.801-1.268 1.337-1.99 3.2-2.165 5.586v0c-0.17 2.32 0.266 4.111 1.311 5.371 1.037 1.259 2.566 1.963 4.587 2.112zM182.494 9.398c3.191 0.134 5.458 1.35 6.804 3.648 1.351 2.305 1.945 5.416 1.78 9.333v0c-0.081 1.925-0.157 3.353-0.23 4.284v0l-0.281 5.523c-0.033 0.793-0.36 1.419-0.98 1.881-0.613 0.455-1.419 0.661-2.418 0.619v0c-1.026-0.043-1.868-0.329-2.526-0.856-0.665-0.528-0.979-1.239-0.942-2.132v0l0.403-9.611c0.111-2.658-0.032-4.559-0.431-5.703-0.399-1.151-1.098-1.748-2.097-1.79v0c-0.726-0.03-1.39 0.532-1.993 1.688-0.596 1.156-0.958 2.879-1.087 5.169v0l-0.142 3.387-0.278 6.624c-0.077 1.825-1.227 2.691-3.452 2.598v0c-1.159-0.049-2.045-0.326-2.657-0.832-0.612-0.513-0.9-1.215-0.863-2.108v0l0.468-9.959c0.098-2.325-0.071-4.037-0.505-5.136-0.434-1.099-1.151-1.67-2.15-1.712v0c-0.626-0.026-1.284 0.387-1.974 1.239-0.683 0.852-1.243 2.12-1.681 3.803v0c-0.267 0.95-0.432 2.187-0.496 3.712v0l-0.14 4.538-0.157 3.737c-0.03 0.726-0.388 1.285-1.071 1.677-0.683 0.385-1.488 0.558-2.414 0.519v0c-0.933-0.039-1.723-0.279-2.372-0.72-0.642-0.447-0.947-1.051-0.915-1.81v0l0.635-15.137c0.032-0.766 0.006-1.334-0.079-1.705-0.085-0.371-0.286-0.729-0.605-1.076v0c-0.032-0.028-0.128-0.129-0.288-0.302-0.16-0.173-0.276-0.345-0.348-0.515-0.08-0.17-0.115-0.355-0.107-0.555v0c0.036-0.866 0.389-1.558 1.058-2.078 0.676-0.519 1.41-0.762 2.202-0.728v0c0.666 0.028 1.378 0.555 2.136 1.581v0c0.529 0.756 0.778 1.501 0.747 2.233v0l-0.013 0.3c0.585-1.21 1.417-2.199 2.497-2.968 1.08-0.769 2.416-1.12 4.008-1.053v0c1.592 0.067 2.834 0.442 3.726 1.127 0.885 0.684 1.55 1.62 1.994 2.806v0c0.784-1.202 1.797-2.107 3.036-2.715 1.24-0.615 2.64-0.89 4.199-0.825zM236.149 0.409c1.001 0.092 1.783 0.377 2.347 0.853 0.57 0.482 0.86 1.287 0.868 2.413v0c0.009 1.16-0.308 2.009-0.951 2.547-0.643 0.538-1.564 0.779-2.764 0.721v0c-2.395-0.149-4.355-0.217-5.882-0.205v0c-0.238 3.755-0.393 7.51-0.465 11.264v0c-0.072 3.727-0.086 8.448-0.043 14.16v0c0.009 1.227-0.224 2.085-0.7 2.576-0.476 0.484-1.398 0.731-2.765 0.741v0c-1.427 0.011-2.458-0.231-3.096-0.727-0.63-0.495-0.95-1.323-0.958-2.483v0c-0.037-4.853 0.044-9.591 0.242-14.212v0l0.505-11.214c-1.459 0.078-2.636 0.153-3.528 0.227v0l-2.199 0.166c-0.133 0.034-0.333 0.053-0.599 0.055v0c-0.96 0.007-1.742-0.303-2.348-0.933-0.598-0.629-0.901-1.457-0.908-2.483v0c-0.007-0.967 0.244-1.682 0.753-2.145 0.51-0.471 1.231-0.776 2.164-0.917v0c1.192-0.176 2.868-0.322 5.026-0.438 2.159-0.116 4.152-0.181 5.979-0.195v0c1.493-0.011 3.197 0.002 5.111 0.041 1.914 0.032 3.317 0.095 4.211 0.188zM266.558 15.029c0.902 3.258 1.477 8.592 1.724 16.001v0c0.027 0.8-0.298 1.457-0.975 1.974-0.683 0.523-1.521 0.801-2.514 0.834v0c-1.033 0.034-1.908-0.203-2.625-0.713-0.71-0.503-1.082-1.238-1.114-2.205v0c-0.136-4.084-0.285-7.255-0.447-9.51-0.155-2.256-0.422-4.075-0.802-5.456v0c-0.264-0.925-0.634-1.52-1.109-1.784-0.476-0.264-0.993-0.387-1.554-0.369v0c-1.826 0.061-3.149 0.792-3.969 2.193-0.82 1.408-1.193 3.225-1.119 5.451v0l0.341 10.264c0.024 0.733-0.302 1.351-0.978 1.853-0.684 0.503-1.522 0.771-2.515 0.805v0c-0.999 0.033-1.857-0.188-2.574-0.665-0.709-0.47-1.076-1.071-1.1-1.805v0c-0.212-6.376-0.34-12.722-0.384-19.037v0c-0.012-2.361 0.034-5.988 0.139-10.881v0l0.072-3.534c0.038-0.868 0.364-1.586 0.979-2.154 0.615-0.567 1.452-0.869 2.511-0.904v0c1.033-0.034 1.857 0.185 2.473 0.658 0.61 0.48 0.912 1.137 0.907 1.971v0c-0.136 3.927-0.228 8.169-0.277 12.726v0c0.743-0.725 1.674-1.313 2.793-1.764 1.112-0.457 2.381-0.71 3.806-0.757v0c2.225-0.074 3.997 0.441 5.315 1.544 1.317 1.103 2.316 2.858 2.996 5.264zM285.978 32.96c-4.212 0.262-7.62-0.632-10.225-2.682-2.606-2.056-4.032-5.073-4.28-9.052v0c-0.161-2.588 0.242-4.928 1.208-7.018 0.966-2.091 2.418-3.76 4.358-5.01 1.939-1.256 4.266-1.968 6.981-2.137v0c2.755-0.171 5.213 0.261 7.374 1.296 2.161 1.028 3.878 2.545 5.152 4.549 1.273 1.998 1.992 4.325 2.157 6.98v0c0.241 3.879-0.783 6.962-3.073 9.248-2.289 2.293-5.506 3.568-9.652 3.826zM285.536 27.447c2.023-0.126 3.554-0.795 4.594-2.009 1.04-1.213 1.49-2.948 1.35-5.204v0c-0.138-2.222-0.795-4.089-1.97-5.598-1.176-1.51-2.808-2.2-4.898-2.071v0c-1.956 0.121-3.469 0.933-4.538 2.436-1.076 1.496-1.54 3.439-1.391 5.828v0c0.144 2.322 0.818 4.037 2.022 5.144 1.198 1.108 2.808 1.599 4.831 1.474zM324.865 21.834c0.102 1.156 0.282 2.057 0.539 2.703 0.257 0.64 0.52 1.149 0.787 1.527 0.268 0.378 0.404 0.6 0.41 0.666v0c0.073 0.83-0.172 1.544-0.735 2.143-0.57 0.599-1.366 0.944-2.388 1.034v0c-0.631 0.056-1.348-0.223-2.152-0.834-0.803-0.612-1.358-1.323-1.663-2.133v0c-0.96 2.32-3.031 3.62-6.212 3.901v0c-2.909 0.256-5.257-0.571-7.045-2.481-1.788-1.91-2.822-4.456-3.102-7.637v0l-1.033-11.715c-0.067-0.757 0.217-1.408 0.852-1.952 0.635-0.538 1.451-0.851 2.447-0.939v0c0.99-0.087 1.864 0.077 2.624 0.492 0.753 0.422 1.163 1.012 1.23 1.769v0l1.024 11.625c0.125 1.421 0.486 2.671 1.084 3.749 0.591 1.086 1.401 1.583 2.43 1.492v0c1.288-0.114 2.187-0.778 2.695-1.994 0.516-1.21 0.645-3.273 0.389-6.188v0l-0.81-9.184c-0.078-0.89 0.181-1.629 0.779-2.217 0.597-0.588 1.424-0.929 2.479-1.022v0c1.096-0.097 2.006 0.091 2.73 0.563 0.724 0.472 1.126 1.152 1.204 2.042v0zM355.875 17.565c0.965 3.968 1.545 6.794 1.74 8.476v0c0.265 2.278-0.014 4.408-0.837 6.389-0.823 1.988-2.11 3.645-3.862 4.969-1.752 1.325-3.866 2.131-6.343 2.419v0c-1.98 0.23-3.836 0.087-5.567-0.43-1.731-0.517-3.149-1.339-4.253-2.465-1.098-1.127-1.733-2.433-1.906-3.916v0c-0.108-0.927 0.085-1.637 0.578-2.131 0.493-0.494 1.302-0.806 2.428-0.937v0c0.722-0.084 1.334 0.013 1.836 0.29 0.502 0.277 0.837 0.708 1.006 1.293v0c0.288 1.034 0.839 1.765 1.654 2.193 0.821 0.421 1.923 0.552 3.308 0.391v0c3.761-0.437 5.377-2.934 4.847-7.49v0c-0.077-0.662-0.157-1.203-0.239-1.623v0c-0.686 0.677-1.577 1.274-2.671 1.79-1.095 0.51-2.318 0.843-3.669 1v0c-2.278 0.265-4.381-0.044-6.309-0.927-1.927-0.877-3.506-2.213-4.735-4.01-1.229-1.797-1.982-3.884-2.258-6.261v0c-0.28-2.41-0.012-4.633 0.805-6.668 0.817-2.035 2.081-3.695 3.79-4.981 1.71-1.286 3.733-2.065 6.071-2.337v0c2.278-0.265 4.054 0.032 5.328 0.891v0l0.572-1.577c0.117-0.383 0.36-0.713 0.73-0.991 0.37-0.278 0.854-0.452 1.45-0.52v0c0.92-0.107 1.825 0.05 2.712 0.469 0.887 0.414 1.375 1.001 1.464 1.763v0c0.012 0.099 0.003 0.315-0.026 0.647v0c0 0-0.086 0.413-0.258 1.239v0c-0.206 0.829-0.315 1.329-0.33 1.498v0l0.264 0.966c0.956 3.6 1.849 7.128 2.68 10.581zM344.182 22.287c1.126-0.131 2.152-0.512 3.078-1.143 0.934-0.625 1.475-1.312 1.623-2.061v0c-0.966-3.975-1.794-7.208-2.486-9.698v0c-0.393-0.491-0.92-0.866-1.581-1.125-0.668-0.258-1.399-0.341-2.193-0.248v0c-1.649 0.192-2.929 1.045-3.84 2.56-0.912 1.509-1.247 3.303-1.005 5.382v0c0.223 1.914 0.894 3.5 2.013 4.76 1.113 1.26 2.577 1.784 4.391 1.573zM382.756 3.265c1.251 3.141 2.401 8.381 3.45 15.72v0c0.113 0.792-0.138 1.481-0.755 2.068-0.622 0.594-1.425 0.961-2.408 1.102v0c-1.023 0.146-1.919 0.005-2.687-0.424-0.761-0.423-1.21-1.113-1.347-2.071v0c-0.578-4.046-1.071-7.181-1.476-9.405-0.399-2.226-0.862-4.005-1.389-5.337v0c-0.363-0.891-0.795-1.442-1.297-1.653-0.502-0.211-1.03-0.277-1.584-0.198v0c-1.808 0.259-3.044 1.129-3.708 2.611-0.663 1.489-0.836 3.335-0.521 5.539v0l1.454 10.167c0.104 0.726-0.153 1.376-0.772 1.949-0.625 0.574-1.429 0.932-2.413 1.072v0c-0.99 0.142-1.867 0.014-2.63-0.381-0.756-0.39-1.186-0.948-1.29-1.675v0c-0.903-6.316-1.719-12.61-2.448-18.883v0c-0.268-2.346-0.616-5.956-1.043-10.832v0l-0.312-3.521c-0.057-0.867 0.19-1.616 0.739-2.247 0.55-0.631 1.349-1.021 2.399-1.172v0c1.023-0.146 1.866-0.018 2.53 0.386 0.658 0.411 1.03 1.031 1.114 1.861v0c0.291 3.918 0.66 8.145 1.106 12.681v0c0.66-0.801 1.522-1.487 2.585-2.056 1.056-0.575 2.29-0.964 3.703-1.166v0c2.204-0.315 4.021 0.004 5.45 0.958 1.429 0.954 2.613 2.59 3.55 4.907zM404.503 8.741c1.085-0.183 1.91-0.103 2.475 0.241 0.559 0.345 0.918 0.991 1.077 1.938v0c0.365 2.163-0.028 4.017-1.18 5.564-1.153 1.54-2.778 2.487-4.875 2.841v0c-2.853 0.482-5.128-0.321-6.826-2.407-1.705-2.092-2.981-5.643-3.826-10.652v0c-0.255-1.512-0.424-2.613-0.507-3.301v0c-0.229 0.005-0.607 0.052-1.132 0.14v0c-1.872 0.282-2.958-0.461-3.257-2.229v0c-0.155-0.92-0.035-1.651 0.36-2.191 0.396-0.54 1.204-0.896 2.426-1.068v0l1.084-0.132c-0.113-2.07-0.155-4.622-0.127-7.656v0c-0.002-0.811 0.265-1.471 0.802-1.981 0.536-0.51 1.281-0.845 2.234-1.006v0c1.111-0.188 2.022-0.074 2.734 0.339 0.713 0.42 1.134 1.009 1.262 1.765v0l0.017 0.403 0.018 1.609c0.059 2.755 0.106 4.634 0.14 5.636v0c1.122-0.122 1.979-0.233 2.571-0.333v0c1.675-0.249 2.657 0.478 2.944 2.18v0c0.144 0.855 0.026 1.534-0.356 2.038-0.388 0.505-1.124 0.849-2.209 1.032v0l-2.456 0.415c0.077 0.656 0.238 1.708 0.482 3.153v0c0.408 2.419 0.781 4.266 1.118 5.542 0.33 1.276 0.649 2.125 0.957 2.546 0.308 0.421 0.642 0.601 1.004 0.54v0c0.454-0.077 0.721-0.274 0.803-0.592 0.082-0.318 0.058-0.855-0.069-1.611v0c-0.26-1.538 0.511-2.459 2.312-2.763zM423.369 15.778c-2.253 0.429-4.361 0.281-6.325-0.445-1.964-0.725-3.49-1.897-4.578-3.515v0c-0.29-0.454-0.466-0.844-0.529-1.172v0c-0.131-0.688 0.105-1.408 0.708-2.161 0.602-0.759 1.325-1.219 2.17-1.38v0c0.491-0.094 0.904-0.064 1.239 0.09 0.336 0.16 0.602 0.313 0.8 0.458 0.192 0.153 0.311 0.26 0.356 0.319v0c1.16 0.926 2.095 1.559 2.805 1.899 0.703 0.341 1.496 0.428 2.38 0.259v0c0.819-0.156 1.486-0.463 2.003-0.921 0.525-0.453 0.728-0.99 0.609-1.612v0c-0.13-0.681-0.576-1.153-1.338-1.415-0.756-0.263-1.95-0.494-3.583-0.692v0c-1.807-0.26-3.291-0.551-4.451-0.872-1.161-0.322-2.238-0.921-3.234-1.797-0.995-0.876-1.644-2.113-1.948-3.711v0c-0.304-1.598-0.108-3.064 0.587-4.397 0.69-1.333 1.735-2.455 3.136-3.367 1.401-0.912 2.982-1.535 4.744-1.87v0c1.893-0.36 3.601-0.319 5.123 0.124 1.522 0.436 2.75 1.166 3.685 2.189 0.941 1.022 1.536 2.185 1.784 3.488v0c0.167 0.878 0.049 1.592-0.355 2.144-0.404 0.552-1.176 0.936-2.315 1.153v0c-1.015 0.193-1.74 0.162-2.176-0.094-0.436-0.256-0.758-0.667-0.968-1.231v0c-0.254-0.8-0.631-1.407-1.13-1.821-0.505-0.406-1.36-0.494-2.565-0.264v0c-0.917 0.175-1.597 0.47-2.04 0.887-0.442 0.423-0.607 0.93-0.494 1.519v0c0.137 0.72 0.593 1.207 1.367 1.46 0.776 0.259 1.99 0.469 3.642 0.63v0c1.77 0.206 3.24 0.459 4.41 0.758 1.17 0.3 2.243 0.872 3.218 1.719 0.975 0.846 1.618 2.084 1.929 3.714v0c0.355 1.866 0.124 3.502-0.694 4.907-0.812 1.403-1.954 2.517-3.426 3.34-1.465 0.822-2.981 1.382-4.546 1.68z" opacity="1" transform="matrix(1,0,0,1,0,0)" fill="#ffffff" class="undefined-text-0" data-fill-palette-color="primary" id="text-0"></path></svg></g></svg></g></svg></g></svg></g><g transform="matrix(1,0,0,1,134.4457671565022,0)"><svg viewBox="0 0 126.6284656869956 110.45435301688113" height="110.45435301688113" width="126.6284656869956"><g><svg xmlns="http://www.w3.org/2000/svg" xmlns:xlink="http://www.w3.org/1999/xlink" version="1.1" x="0" y="0" viewBox="1.9360003471374512 4.942999839782715 46.12900161743164 40.236995697021484" enable-background="new 0 0 50 50" xml:space="preserve" height="110.45435301688113" width="126.6284656869956" class="icon-icon-0" data-fill-palette-color="accent" id="icon-0"><g fill="#ffffff" data-fill-palette-color="accent"><path fill-rule="evenodd" clip-rule="evenodd" d="M28.127 4.943c0.506 0 1.015 0 1.52 0 4.026 0.508 6.542 2.199 7.688 4.966 6.712-0.369 11.592 4.863 8.618 9.998 0.989 1.079 1.814 2.286 2.112 3.906 0 0.464 0 0.927 0 1.391-0.888 4.123-4.709 6.909-10.982 6.159-1.614 2.117-4.486 4.237-8.955 3.973-2.31-0.139-3.917-0.944-5.324-1.922-1.482 0.813-3.087 1.451-5.406 1.458-5.365 0.012-8.954-3.12-9.041-7.416-3.449-1.005-5.785-2.881-6.421-6.091 0-0.464 0-0.929 0-1.391 0.702-3.181 2.911-5.179 6.589-6.026-0.221-5.366 7.136-8.719 13.18-6.355C23.144 6.424 25.18 5.149 28.127 4.943z" fill="#ffffff" data-fill-palette-color="accent"></path></g><circle fill-rule="evenodd" clip-rule="evenodd" cx="10.343" cy="37.335" r="1.9" fill="#ffffff" data-fill-palette-color="accent"></circle><circle fill-rule="evenodd" clip-rule="evenodd" cx="6.759" cy="41.109" r="1.3" fill="#ffffff" data-fill-palette-color="accent"></circle><circle fill-rule="evenodd" clip-rule="evenodd" cx="3.682" cy="44.231" r="0.95" fill="#ffffff" data-fill-palette-color="accent"></circle></svg></g></svg></g><g></g></svg></g><defs></defs></svg><rect width="395.52" height="169.72722971930688" fill="none" stroke="none" visibility="hidden"></rect></g></svg></g></svg>