<svg xmlns="http://www.w3.org/2000/svg" version="1.1" xmlns:xlink="http://www.w3.org/1999/xlink" xmlns:svgjs="http://svgjs.dev/svgjs" width="1000" height="623" viewBox="0 0 1000 623"><g transform="matrix(1,0,0,1,-0.6060606060606233,0.2522267206477409)"><svg viewBox="0 0 396 247" data-background-color="#ff5858" preserveAspectRatio="xMidYMid meet" height="623" width="1000" xmlns="http://www.w3.org/2000/svg" xmlns:xlink="http://www.w3.org/1999/xlink"><g id="tight-bounds" transform="matrix(1,0,0,1,0.2400000000000091,-0.09999999999999432)"><svg viewBox="0 0 395.52 247.2" height="247.2" width="395.52"><g><svg></svg></g><g><svg viewBox="0 0 395.52 247.2" height="247.2" width="395.52"><g transform="matrix(1,0,0,1,39.55199999999999,110.78222222222222)"><svg viewBox="0 0 316.416 25.635555555555555" height="25.635555555555555" width="316.416"><g><svg viewBox="0 0 316.416 25.635555555555555" height="25.635555555555555" width="316.416"><g><svg viewBox="0 0 316.416 25.635555555555555" height="25.635555555555555" width="316.416"><g id="textblocktransform"><svg viewBox="0 0 316.416 25.635555555555555" height="25.635555555555555" width="316.416" id="textblock"><g><svg viewBox="0 0 316.416 25.635555555555555" height="25.635555555555555" width="316.416"><g transform="matrix(1,0,0,1,0,0)"><svg width="316.416" viewBox="2 -38 475.1700134277344 38.5" height="25.635555555555555" data-palette-color="#ffffff"><path d="M14 0Q12.3 0 11-0.83 9.7-1.65 9.4-2.9L9.4-2.9Q9.3-3.2 8.5-6.9L8.5-6.9Q7.25-13.15 5.55-18.7L5.55-18.7Q4.4-22.55 3.65-25.5L3.65-25.5 2.15-30.9Q2-31.45 2-31.9L2-31.9Q2-33.45 3.2-34.38 4.4-35.3 6.2-35.3L6.2-35.3Q7.4-35.3 8.18-34.77 8.95-34.25 9.25-33L9.25-33Q9.6-31.5 9.93-30.38 10.25-29.25 10.45-28.4L10.45-28.4Q11.7-24.15 12.5-20.35L12.5-20.35Q12.75-19.25 13.4-15.8L13.4-15.8Q13.85-13.65 14.25-11.85 14.65-10.05 14.8-10.05L14.8-10.05Q14.95-10.05 15.33-11 15.7-11.95 15.98-12.78 16.25-13.6 16.4-14.05L16.4-14.05Q16.6-14.75 17.45-17.15L17.45-17.15Q18.15-19 18.57-19.93 19-20.85 19.7-21.55 20.4-22.25 21.4-22.25L21.4-22.25Q22.8-22.25 23.7-21 24.6-19.75 25.55-17.05L25.55-17.05Q28-10.15 28.5-10.15L28.5-10.15Q28.8-10.15 29.65-15.55L29.65-15.55Q29.85-16.55 30.05-17.73 30.25-18.9 30.5-20.25L30.5-20.25Q31.8-26.95 33.2-32.95L33.2-32.95Q33.75-35.25 36.55-35.25L36.55-35.25Q38.3-35.25 39.45-34.35 40.6-33.45 40.6-32.05L40.6-32.05Q40.6-31.65 40.45-31.1L40.45-31.1Q39.35-26.95 38.15-21.7L38.15-21.7 37.45-18.75Q36.65-15.4 35.83-11.3 35-7.2 34.75-6.05L34.75-6.05 34.2-3.2Q33.9-1.7 32.75-0.9 31.6-0.1 29.8-0.1L29.8-0.1Q28-0.1 26.78-0.95 25.55-1.8 24.55-3.65L24.55-3.65Q24.4-3.9 23.1-6.65L23.1-6.65Q21.75-9.65 21.55-9.65L21.55-9.65Q21.35-9.65 20.55-7.3L20.55-7.3Q19.5-4.5 19.1-3.7L19.1-3.7Q17.3 0 14 0L14 0ZM62.55-0.3Q57.3-0.3 53.35-2.38 49.4-4.45 47.25-8.28 45.1-12.1 45.1-17.3L45.1-17.3Q45.1-22.55 47.3-26.68 49.5-30.8 53.42-33.13 57.35-35.45 62.4-35.45L62.4-35.45Q67.6-35.45 71.77-33.02 75.95-30.6 78.32-26.4 80.7-22.2 80.7-17.1L80.7-17.1Q80.7-12.05 78.37-8.25 76.05-4.45 71.95-2.38 67.85-0.3 62.55-0.3L62.55-0.3ZM62.85-6.8Q65.85-6.8 68.25-8 70.65-9.2 72.05-11.6 73.45-14 73.45-17.4L73.45-17.4Q73.45-20.75 72.12-23.38 70.8-26 68.35-27.48 65.9-28.95 62.7-28.95L62.7-28.95Q59.5-28.95 57.17-27.48 54.85-26 53.6-23.43 52.35-20.85 52.35-17.55L52.35-17.55Q52.35-12.35 55.27-9.58 58.2-6.8 62.85-6.8L62.85-6.8ZM97.15 0.15Q92.25 0.15 89.97-0.9 87.7-1.95 86.95-4.4 86.2-6.85 86.2-11.95L86.2-11.95Q86.2-17.7 86.72-22.5 87.25-27.3 88.15-32.6L88.15-32.6Q88.35-33.8 89.37-34.52 90.4-35.25 92-35.25L92-35.25Q93.7-35.25 94.57-34.43 95.45-33.6 95.45-32.2L95.45-32.2Q95.45-31.9 95.35-31.3L95.35-31.3Q94.3-25.15 93.75-20.83 93.2-16.5 93.2-11.75L93.2-11.75Q93.2-9.3 93.42-8.15 93.65-7 94.32-6.55 95-6.1 96.45-6.1L96.45-6.1Q99.55-6.1 107.15-7.5L107.15-7.5Q107.4-7.55 107.85-7.55L107.85-7.55Q109.15-7.55 109.92-6.58 110.7-5.6 110.7-4.3L110.7-4.3Q110.7-1.65 106.85-0.95L106.85-0.95Q103.4-0.3 101.62-0.08 99.85 0.15 97.15 0.15L97.15 0.15ZM129.74-28.75Q127.69-28.75 126.54-28.7L126.54-28.7Q126.74-24.3 126.79-20.85L126.79-20.85Q127.49-20.9 128.99-20.9L128.99-20.9Q131.84-20.9 133.72-20.8 135.59-20.7 137.04-20.35L137.04-20.35Q138.44-20 139.09-19.25 139.74-18.5 139.74-17.2L139.74-17.2Q139.74-15.75 138.97-14.85 138.19-13.95 136.59-14.1L136.59-14.1Q132.59-14.5 129.19-14.5L129.19-14.5Q127.54-14.5 126.79-14.45L126.79-14.45Q126.74-9.8 126.44-4.8L126.44-4.8 126.34-3.05Q126.24-1.7 125.32-0.88 124.39-0.05 122.69-0.05L122.69-0.05Q120.94-0.05 119.94-0.9 118.94-1.75 119.04-3.1L119.04-3.1Q119.49-8.7 119.54-13.95L119.54-13.95 118.44-13.8Q117.29-13.65 116.57-14.6 115.84-15.55 115.84-17.05L115.84-17.05Q115.84-18.65 116.67-19.33 117.49-20 118.99-20.25L118.99-20.25 119.49-20.35Q119.44-25.05 119.19-28.55L119.19-28.55 118.79-28.55Q117.19-28.55 116.44-29.25 115.69-29.95 115.69-31.7L115.69-31.7Q115.69-33.35 116.32-34.02 116.94-34.7 118.14-34.85L118.14-34.85 118.69-34.9Q118.64-35.05 118.64-35.25L118.64-35.25Q118.54-36.5 119.57-37.25 120.59-38 122.39-38L122.39-38Q125.69-38 125.99-35.3L125.99-35.3 125.99-35.15 130.04-35.15Q132.69-35.15 135.42-34.98 138.14-34.8 139.39-34.55L139.39-34.55Q140.94-34.25 141.59-33.43 142.24-32.6 142.24-31.35L142.24-31.35Q142.24-29.85 141.44-28.95 140.64-28.05 139.24-28.2L139.24-28.2Q133.99-28.75 129.74-28.75L129.74-28.75ZM160.79-0.05Q159.04-0.05 158.09-0.95 157.14-1.85 157.14-3.4L157.14-3.4 156.99-16.6Q156.29-16.6 154.37-18.53 152.44-20.45 151.34-22.1L151.34-22.1Q150.39-23.5 149.14-25.95 147.89-28.4 146.89-30.95L146.89-30.95Q146.74-31.35 146.74-31.75L146.74-31.75Q146.74-33 147.97-34.05 149.19-35.1 150.89-35.1L150.89-35.1Q152.09-35.1 152.89-34.48 153.69-33.85 154.34-32.5L154.34-32.5Q156.69-27.65 158.09-25.25L158.09-25.25Q160.09-21.95 160.79-21.95L160.79-21.95Q161.44-21.95 163.24-25.25L163.24-25.25 167.14-32.7Q167.79-33.9 168.42-34.45 169.04-35 170.39-35L170.39-35Q172.24-35 173.44-34.18 174.64-33.35 174.64-31.9L174.64-31.9Q174.64-31.4 174.29-30.45L174.29-30.45Q173.84-29.3 172.31-26.28 170.79-23.25 169.89-21.9L169.89-21.9Q168.69-20.05 166.81-18.32 164.94-16.6 164.24-16.6L164.24-16.6 164.39-3.55Q164.39-1.9 163.47-0.98 162.54-0.05 160.79-0.05L160.79-0.05ZM219.84-34.6Q221.34-34.45 222.19-33.73 223.04-33 223.04-31.3L223.04-31.3Q223.04-29.55 222.06-28.75 221.09-27.95 219.29-28.05L219.29-28.05Q215.69-28.3 213.39-28.3L213.39-28.3Q212.99-22.65 212.84-17L212.84-17Q212.69-11.4 212.69-2.8L212.69-2.8Q212.69-0.95 211.96-0.23 211.24 0.5 209.19 0.5L209.19 0.5Q207.04 0.5 206.09-0.25 205.14-1 205.14-2.75L205.14-2.75Q205.14-10.05 205.49-17L205.49-17 206.09-28.25Q203.89-28.15 202.54-28.05L202.54-28.05 200.34-27.9Q200.14-27.85 199.74-27.85L199.74-27.85Q198.29-27.85 197.39-28.8 196.49-29.75 196.49-31.3L196.49-31.3Q196.49-32.75 197.26-33.45 198.04-34.15 199.44-34.35L199.44-34.35Q201.24-34.6 204.49-34.75 207.74-34.9 210.49-34.9L210.49-34.9Q212.74-34.9 215.61-34.83 218.49-34.75 219.84-34.6L219.84-34.6ZM258.78-19.25Q259.68-19.25 260.48-18.43 261.28-17.6 261.28-15.95L261.28-15.95Q261.28-14.3 260.48-13.5 259.68-12.7 258.73-12.7L258.73-12.7 258.33-12.7 258.58-3.35Q258.63-1.75 257.66-0.83 256.68 0.1 254.98 0.1L254.98 0.1Q253.33 0.1 252.33-0.78 251.33-1.65 251.28-3.15L251.28-3.15 250.98-12.8 238.23-13 237.38-2.25Q237.18 0.35 233.78 0.35L233.78 0.35Q231.88 0.35 230.93-0.43 229.98-1.2 230.08-2.75L230.08-2.75 230.88-13.1 230.58-13.1Q229.38-13.1 228.71-13.98 228.03-14.85 228.03-16.4L228.03-16.4Q228.03-17.95 228.78-18.78 229.53-19.6 230.78-19.6L230.78-19.6 231.43-19.6 232.48-33.1Q232.58-34.45 233.63-35.3 234.68-36.15 236.33-36.15L236.33-36.15Q238.08-36.15 238.98-35.15 239.88-34.15 239.78-32.55L239.78-32.55 238.73-19.5 250.78-19.35 250.38-32.75Q250.33-34.25 251.31-35.2 252.28-36.15 254.03-36.15L254.03-36.15Q255.68-36.15 256.68-35.23 257.68-34.3 257.73-32.95L257.73-32.95 258.13-19.25 258.78-19.25ZM284.73-0.3Q279.48-0.3 275.53-2.38 271.58-4.45 269.43-8.28 267.28-12.1 267.28-17.3L267.28-17.3Q267.28-22.55 269.48-26.68 271.68-30.8 275.61-33.13 279.53-35.45 284.58-35.45L284.58-35.45Q289.78-35.45 293.96-33.02 298.13-30.6 300.51-26.4 302.88-22.2 302.88-17.1L302.88-17.1Q302.88-12.05 300.56-8.25 298.23-4.45 294.13-2.38 290.03-0.3 284.73-0.3L284.73-0.3ZM285.03-6.8Q288.03-6.8 290.43-8 292.83-9.2 294.23-11.6 295.63-14 295.63-17.4L295.63-17.4Q295.63-20.75 294.31-23.38 292.98-26 290.53-27.48 288.08-28.95 284.88-28.95L284.88-28.95Q281.68-28.95 279.36-27.48 277.03-26 275.78-23.43 274.53-20.85 274.53-17.55L274.53-17.55Q274.53-12.35 277.46-9.58 280.38-6.8 285.03-6.8L285.03-6.8ZM336.88-21.4Q337.03-14.8 337.03-3.7L337.03-3.7Q337.03-1.6 336.13-0.7 335.23 0.2 333.38 0.2L333.38 0.2Q331.53 0.2 330.65-0.63 329.78-1.45 329.78-3.35L329.78-3.35 329.78-4.35Q328.38-2.45 326-1.23 323.63 0 320.53 0L320.53 0Q316.98 0 314.33-1.65 311.68-3.3 310.28-6.28 308.88-9.25 308.88-13.1L308.88-13.1Q308.88-19.3 309.13-30.3L309.13-30.3 309.18-32.05Q309.23-33.45 310.2-34.33 311.18-35.2 312.93-35.2L312.93-35.2Q314.63-35.2 315.53-34.4 316.43-33.6 316.43-32.05L316.43-32.05Q316.43-28.7 316.33-23.3L316.33-23.3Q316.23-17.5 316.23-13.1L316.23-13.1Q316.23-10.05 317.8-8.3 319.38-6.55 321.58-6.55L321.58-6.55Q323.53-6.55 325.4-7.93 327.28-9.3 328.48-11.68 329.68-14.05 329.68-16.9L329.68-16.9 329.68-20.3Q329.63-23.1 329.63-32.3L329.63-32.3Q329.63-35.5 333.03-35.5L333.03-35.5Q334.78-35.5 335.78-34.68 336.78-33.85 336.78-32.3L336.78-32.3Q336.78-29.35 336.88-22.85L336.88-22.85 336.88-21.4ZM377.58-16.2Q377.58-14.75 376.7-13.85 375.83-12.95 374.23-12.9L374.23-12.9Q373.68-6.75 370.2-3.35 366.73 0.05 360.68 0.05L360.68 0.05Q355.68 0.05 351.65-2.23 347.63-4.5 345.35-8.5 343.08-12.5 343.08-17.4L343.08-17.4Q343.08-22.25 345.25-26.18 347.43-30.1 351.18-32.35 354.93-34.6 359.43-34.6L359.43-34.6Q363.13-34.6 365.6-33.18 368.08-31.75 369.13-29.95L369.13-29.95 369.13-31.1Q369.13-32.1 369.95-32.8 370.78-33.5 372.33-33.5L372.33-33.5Q373.93-33.5 374.75-32.77 375.58-32.05 375.63-30.95L375.63-30.95Q375.78-26.8 374.93-25.15L374.93-25.15Q374.48-24.35 373.6-23.95 372.73-23.55 371.63-23.55L371.63-23.55Q370.63-23.55 369.88-23.93 369.13-24.3 367.93-25.35L367.93-25.35Q366.58-26.55 365.13-27.3 363.68-28.05 361.18-28.05L361.18-28.05Q358.08-28.05 355.6-26.73 353.13-25.4 351.73-22.98 350.33-20.55 350.33-17.4L350.33-17.4Q350.33-14.25 351.73-11.75 353.13-9.25 355.48-7.85 357.83-6.45 360.48-6.45L360.48-6.45Q363.28-6.45 365.03-8.08 366.78-9.7 367.23-12.95L367.23-12.95 362.18-13.05Q360.43-13.1 359.6-13.95 358.78-14.8 358.78-16.2L358.78-16.2Q358.78-17.75 359.73-18.7 360.68-19.65 362.33-19.6L362.33-19.6 373.73-19.35Q375.63-19.3 376.6-18.5 377.58-17.7 377.58-16.2L377.58-16.2ZM413.32-19.25Q414.22-19.25 415.02-18.43 415.82-17.6 415.82-15.95L415.82-15.95Q415.82-14.3 415.02-13.5 414.22-12.7 413.27-12.7L413.27-12.7 412.87-12.7 413.12-3.35Q413.17-1.75 412.2-0.83 411.22 0.1 409.52 0.1L409.52 0.1Q407.87 0.1 406.87-0.78 405.87-1.65 405.82-3.15L405.82-3.15 405.52-12.8 392.77-13 391.92-2.25Q391.72 0.35 388.32 0.35L388.32 0.35Q386.42 0.35 385.47-0.43 384.52-1.2 384.62-2.75L384.62-2.75 385.42-13.1 385.12-13.1Q383.92-13.1 383.25-13.98 382.57-14.85 382.57-16.4L382.57-16.4Q382.57-17.95 383.32-18.78 384.07-19.6 385.32-19.6L385.32-19.6 385.97-19.6 387.02-33.1Q387.12-34.45 388.17-35.3 389.22-36.15 390.87-36.15L390.87-36.15Q392.62-36.15 393.52-35.15 394.42-34.15 394.32-32.55L394.32-32.55 393.27-19.5 405.32-19.35 404.92-32.75Q404.87-34.25 405.85-35.2 406.82-36.15 408.57-36.15L408.57-36.15Q410.22-36.15 411.22-35.23 412.22-34.3 412.27-32.95L412.27-32.95 412.67-19.25 413.32-19.25ZM444.17-34.6Q445.67-34.45 446.52-33.73 447.37-33 447.37-31.3L447.37-31.3Q447.37-29.55 446.4-28.75 445.42-27.95 443.62-28.05L443.62-28.05Q440.02-28.3 437.72-28.3L437.72-28.3Q437.32-22.65 437.17-17L437.17-17Q437.02-11.4 437.02-2.8L437.02-2.8Q437.02-0.95 436.3-0.23 435.57 0.5 433.52 0.5L433.52 0.5Q431.37 0.5 430.42-0.25 429.47-1 429.47-2.75L429.47-2.75Q429.47-10.05 429.82-17L429.82-17 430.42-28.25Q428.22-28.15 426.87-28.05L426.87-28.05 424.67-27.9Q424.47-27.85 424.07-27.85L424.07-27.85Q422.62-27.85 421.72-28.8 420.82-29.75 420.82-31.3L420.82-31.3Q420.82-32.75 421.6-33.45 422.37-34.15 423.77-34.35L423.77-34.35Q425.57-34.6 428.82-34.75 432.07-34.9 434.82-34.9L434.82-34.9Q437.07-34.9 439.95-34.83 442.82-34.75 444.17-34.6L444.17-34.6ZM465.02 0.05Q461.27 0.05 458.29-1.53 455.32-3.1 453.64-5.68 451.97-8.25 451.97-11.2L451.97-11.2Q451.97-13.1 452.94-13.95 453.92-14.8 455.47-14.8L455.47-14.8Q459.12-14.8 459.27-11.75L459.27-11.75Q459.42-9.2 461.12-7.83 462.82-6.45 465.02-6.45L465.02-6.45Q466.92-6.45 468.42-7.3 469.92-8.15 469.92-9.8L469.92-9.8Q469.92-11.1 468.97-11.98 468.02-12.85 466.74-13.33 465.47-13.8 463.22-14.45L463.22-14.45Q460.32-15.25 458.07-16.2 455.82-17.15 453.84-19.28 451.87-21.4 451.87-24.75L451.87-24.75Q451.87-27.8 453.54-30.25 455.22-32.7 458.07-34.08 460.92-35.45 464.32-35.45L464.32-35.45Q467.87-35.45 470.74-33.98 473.62-32.5 475.27-30.05 476.92-27.6 476.92-24.9L476.92-24.9Q476.92-21.6 473.32-21.6L473.32-21.6Q471.77-21.6 470.99-22.35 470.22-23.1 469.77-24.8L469.77-24.8Q469.32-26.5 467.94-27.75 466.57-29 464.32-29L464.32-29Q462.12-29 460.62-27.83 459.12-26.65 459.12-24.65L459.12-24.65Q459.12-23.25 460.24-22.6 461.37-21.95 464.57-21L464.57-21Q464.87-20.9 465.27-20.78 465.67-20.65 466.12-20.5L466.12-20.5Q468.87-19.65 471.17-18.55 473.47-17.45 475.32-15.3 477.17-13.15 477.17-9.95L477.17-9.95Q477.17-7.05 475.54-4.78 473.92-2.5 471.14-1.23 468.37 0.05 465.02 0.05L465.02 0.05Z" opacity="1" transform="matrix(1,0,0,1,0,0)" fill="#ffffff" class="undefined-text-0" data-fill-palette-color="primary" id="text-0"></path></svg></g></svg></g></svg></g></svg></g><g></g></svg></g></svg></g><g mask="url(&quot;#201a26d8-2b18-4d75-9f40-2adb5ff174cc&quot;)"><g transform="matrix(4.184189591945604, 0, 0, 4.184189591945604, 79.76375936927667, 1)"><svg xmlns="http://www.w3.org/2000/svg" xmlns:xlink="http://www.w3.org/1999/xlink" version="1.1" x="0" y="0" viewBox="10.702997207641602 8.200450897216797 56.4010009765625 58.6015510559082" enable-background="new 0 0 75 75" xml:space="preserve" height="58.6015510559082" width="56.4010009765625" class="icon-none" data-fill-palette-color="accent" id="none"><path fill="#ffffff" d="M67.104 33.365C67.104 40.344 61.498 46 54.582 46c-0.542 0-1.075-0.039-1.601-0.106-1.576 2.224-4.169 3.677-7.103 3.677-1.414 0-2.749-0.34-3.93-0.938-1.736 3.007-4.797 5.005-8.284 5.005-4.076 0-7.57-2.728-9.047-6.605-1.007 0.26-2.078 0.4-3.188 0.4-5.924 0-10.726-3.997-10.726-8.928 0-3.686 2.683-6.849 6.51-8.212-1.938-1.623-3.118-3.762-3.118-6.107 0-4.694 4.719-8.562 10.808-9.111 0.195-2.438 1.419-4.654 3.528-5.902 3.656-2.163 8.584-0.597 11.006 3.497 0.139 0.234 0.265 0.472 0.381 0.712 1.767-1.646 4.245-2.672 6.99-2.672 5.365 0 9.715 3.91 9.715 8.731 0 0.486-0.046 0.962-0.131 1.426C62.451 21.751 67.104 27.009 67.104 33.365zM24.831 55.352c-1.558 0-2.82 1.263-2.82 2.82s1.263 2.82 2.82 2.82 2.82-1.263 2.82-2.82S26.389 55.352 24.831 55.352zM20.038 62.856c-1.089 0-1.973 0.883-1.973 1.973s0.884 1.973 1.973 1.973c1.09 0 1.973-0.883 1.973-1.973S21.128 62.856 20.038 62.856z" data-fill-palette-color="accent"></path></svg></g></g></svg></g><defs><mask id="201a26d8-2b18-4d75-9f40-2adb5ff174cc"><rect width="640" height="400" fill="white"></rect><rect width="348.05760000000004" height="37.73943438222222" fill="black" y="104.73028280888889" x="23.731199999999973" id="transform-me"></rect></mask></defs></svg><rect width="395.52" height="247.2" fill="none" stroke="none" visibility="hidden"></rect></g></svg></g></svg>